<svg width="26" height="28" viewBox="0 0 26 28" fill="none" xmlns="http://www.w3.org/2000/svg">
<path d="M20.2275 9.57189C20.2275 7.39612 19.4172 5.30948 17.9748 3.77098C16.5325 2.23248 14.5763 1.36816 12.5365 1.36816C10.4967 1.36816 8.54048 2.23248 7.09814 3.77098C5.65579 5.30948 4.8455 7.39612 4.8455 9.57189C4.8455 19.1429 1 21.8775 1 21.8775H24.073C24.073 21.8775 20.2275 19.1429 20.2275 9.57189Z" stroke="currentColor" stroke-width="2" stroke-linecap="round" stroke-linejoin="round"/>
<path d="M14.7545 25.7227C14.5291 26.1112 14.2057 26.4337 13.8164 26.6578C13.4273 26.8819 12.9861 27 12.5369 27C12.0878 27 11.6465 26.8819 11.2574 26.6578C10.8682 26.4337 10.5447 26.1112 10.3193 25.7227" stroke="currentColor" stroke-width="2" stroke-linecap="round" stroke-linejoin="round"/>
</svg>
