<svg viewBox="0 0 26 19" fill="none" xmlns="http://www.w3.org/2000/svg">
<path d="M8.92429 4.50195H1" stroke="currentColor" stroke-width="1.6" stroke-linecap="round" stroke-linejoin="round"/>
<path d="M24.3335 4.50195H19.7656" stroke="currentColor" stroke-width="1.6" stroke-linecap="round" stroke-linejoin="round"/>
<path d="M16.4455 8.00634C18.2793 8.00634 19.766 6.43792 19.766 4.50317C19.766 2.56842 18.2793 1 16.4455 1C14.6116 1 13.125 2.56842 13.125 4.50317C13.125 6.43792 14.6116 8.00634 16.4455 8.00634Z" stroke="currentColor" stroke-width="1.6" stroke-miterlimit="10"/>
<path d="M16.4072 14.5371H24.3315" stroke="currentColor" stroke-width="1.6" stroke-linecap="round" stroke-linejoin="round"/>
<path d="M1 14.5371H5.56791" stroke="currentColor" stroke-width="1.6" stroke-linecap="round" stroke-linejoin="round"/>
<path d="M8.88884 18.0415C10.7227 18.0415 12.2093 16.4731 12.2093 14.5383C12.2093 12.6036 10.7227 11.0352 8.88884 11.0352C7.05499 11.0352 5.56836 12.6036 5.56836 14.5383C5.56836 16.4731 7.05499 18.0415 8.88884 18.0415Z" stroke="currentColor" stroke-width="1.6" stroke-miterlimit="10"/>
</svg>
