<svg viewBox="0 0 18 17" fill="none" xmlns="http://www.w3.org/2000/svg">
<path d="M1 0.705872C0.447716 0.705872 0 1.15359 0 1.70587V1.97478C0 2.52706 0.447715 2.97478 1 2.97478H17C17.5523 2.97478 18 2.52706 18 1.97478V1.70587C18 1.15359 17.5523 0.705872 17 0.705872H1ZM1 7.44453C0.447716 7.44453 0 7.89224 0 8.44453V8.71344C0 9.26572 0.447715 9.71344 1 9.71344H17C17.5523 9.71344 18 9.26572 18 8.71344V8.44453C18 7.89224 17.5523 7.44453 17 7.44453H1ZM1 14.2513C0.447716 14.2513 0 14.699 0 15.2513V15.5202C0 16.0724 0.447715 16.5202 1 16.5202H17C17.5523 16.5202 18 16.0724 18 15.5202V15.2513C18 14.699 17.5523 14.2513 17 14.2513H1Z" fill="currentColor" fill-opacity="0.85"/>
</svg>
