<svg viewBox="0 0 20 23" fill="none" xmlns="http://www.w3.org/2000/svg">
<path d="M17 11.874V5.56995C17 5.40948 16.9368 5.25559 16.8243 5.14211L13.6757 1.96713C13.5632 1.85366 13.4106 1.78992 13.2515 1.78992H1.6C1.26863 1.78992 1 2.0608 1 2.39496V21.3529C1 21.6871 1.26863 21.958 1.6 21.958H8" stroke="currentColor" stroke-opacity="0.6" stroke-width="2" stroke-linecap="round" stroke-linejoin="round"/>
<path d="M5 9.8571H13M5 5.82349H9M5 13.8907H8" stroke="currentColor" stroke-opacity="0.6" stroke-width="2" stroke-linecap="round" stroke-linejoin="round"/>
<path d="M17.5 20.4453L19 21.9579" stroke="currentColor" stroke-opacity="0.6" stroke-width="2" stroke-linecap="round" stroke-linejoin="round"/>
<path d="M12 17.9243C12 19.5952 13.3431 20.9496 15 20.9496C15.8299 20.9496 16.581 20.6097 17.1241 20.0607C17.6654 19.5134 18 18.7583 18 17.9243C18 16.2535 16.6569 14.8991 15 14.8991C13.3431 14.8991 12 16.2535 12 17.9243Z" stroke="currentColor" stroke-opacity="0.6" stroke-width="2" stroke-linecap="round" stroke-linejoin="round"/>
<path d="M13 1.78992V5.21849C13 5.55264 13.2686 5.82353 13.6 5.82353H17" stroke="currentColor" stroke-opacity="0.6" stroke-width="2" stroke-linecap="round" stroke-linejoin="round"/>
</svg>
