<svg viewBox="0 0 19 19" fill="none" xmlns="http://www.w3.org/2000/svg">
<path d="M7.7808 0.40369C3.37168 1.02615 0 4.83874 0 9.40348C0 14.4091 4.07195 18.4811 9.0776 18.4811C14.0832 18.4811 18.1552 14.4091 18.1552 9.40348C18.1552 8.23636 17.8958 7.14705 17.5068 6.16148L15.1466 7.14705C15.4319 7.89919 15.5616 8.6254 15.5616 9.42942C15.5616 13.0345 12.6827 15.9134 9.0776 15.9134C5.4725 15.9134 2.5936 13.0345 2.5936 9.42942C2.5936 5.82431 5.4725 2.94542 9.0776 2.94542C9.85568 2.94542 10.6078 3.0751 11.36 3.36039L12.2418 0.92241C11.6453 0.714922 11.5945 0.648576 10.2977 0.441806C9.00085 0.235036 7.7808 0.40369 7.7808 0.40369ZM18.1552 0.740858C18.1552 0.740858 8.68856 8.02887 8.19578 8.52166C7.70299 9.04038 7.70299 9.79252 8.19578 10.3112C8.68856 10.83 9.46664 10.83 9.98536 10.3112C10.5041 9.79252 18.1811 0.740858 18.1811 0.740858H18.1552Z" fill="currentColor"/>
</svg>
