<svg version="1.1" viewBox="0 0 17 17" xmlns:xlink="http://www.w3.org/1999/xlink" xmlns="http://www.w3.org/2000/svg">
  <g transform="matrix(1 0 0 1 -1233 -1190 )">
    <path d="M 4.2333984375 1.1399739583333326  C 5.535698784722222 0.379991319444443  6.957899305555556 0  8.5 0  C 10.042100694444445 0  11.464301215277779 0.379991319444443  12.7666015625 1.1399739583333326  C 14.068901909722223 1.8999565972222205  15.100043402777779 2.9310980902777777  15.860026041666668 4.2333984375  C 16.620008680555554 5.5356987847222205  17 6.957899305555554  17 8.5  C 17 10.042100694444445  16.620008680555554 11.464301215277775  15.860026041666668 12.7666015625  C 15.100043402777779 14.068901909722223  14.068901909722223 15.100043402777777  12.7666015625 15.860026041666668  C 11.464301215277779 16.620008680555557  10.042100694444445 17  8.5 17  C 6.957899305555556 17  5.535698784722222 16.620008680555557  4.2333984375 15.860026041666668  C 2.931098090277778 15.100043402777777  1.8999565972222223 14.068901909722223  1.1399739583333335 12.7666015625  C 0.3799913194444444 11.464301215277775  0 10.042100694444445  0 8.5  C 0 6.957899305555554  0.3799913194444444 5.5356987847222205  1.1399739583333335 4.2333984375  C 1.8999565972222223 2.9310980902777777  2.931098090277778 1.8999565972222205  4.2333984375 1.1399739583333326  Z M 9.817057291666668 14.0615234375  C 9.883463541666668 13.99142795138889  9.916666666666668 13.904730902777777  9.916666666666668 13.801432291666668  L 9.916666666666668 11.698567708333334  C 9.916666666666668 11.595269097222221  9.883463541666668 11.50857204861111  9.817057291666668 11.4384765625  C 9.750651041666668 11.36838107638889  9.669487847222223 11.333333333333334  9.573567708333332 11.333333333333334  L 7.448567708333334 11.333333333333334  C 7.352647569444445 11.333333333333334  7.267795138888889 11.370225694444445  7.194010416666666 11.444010416666666  C 7.120225694444445 11.517795138888886  7.083333333333334 11.602647569444445  7.083333333333334 11.698567708333334  L 7.083333333333334 13.801432291666668  C 7.083333333333334 13.897352430555557  7.120225694444445 13.98220486111111  7.194010416666666 14.055989583333332  C 7.267795138888889 14.129774305555557  7.352647569444445 14.166666666666668  7.448567708333334 14.166666666666668  L 9.573567708333332 14.166666666666668  C 9.669487847222223 14.166666666666668  9.750651041666668 14.13161892361111  9.817057291666668 14.0615234375  Z M 9.7783203125 10.187825520833334  C 9.848415798611112 10.132486979166666  9.887152777777777 10.067925347222221  9.89453125 9.994140625  L 10.09375 3.12109375  C 10.093750000000002 3.0325520833333326  10.05685763888889 2.9661458333333326  9.983072916666668 2.921875  C 9.909288194444445 2.8628472222222205  9.820746527777777 2.8333333333333326  9.717447916666668 2.8333333333333326  L 7.282552083333334 2.8333333333333326  C 7.179253472222223 2.8333333333333326  7.090711805555556 2.8628472222222205  7.016927083333334 2.921875  C 6.943142361111112 2.9661458333333326  6.90625 3.0325520833333326  6.90625 3.12109375  L 7.094401041666666 9.994140625  C 7.094401041666666 10.067925347222221  7.131293402777779 10.132486979166666  7.205078125 10.187825520833334  C 7.278862847222223 10.2431640625  7.367404513888889 10.270833333333334  7.470703125 10.270833333333334  L 9.518229166666668 10.270833333333334  C 9.621527777777777 10.270833333333334  9.70822482638889 10.2431640625  9.7783203125 10.187825520833334  Z " fill-rule="nonzero" fill="currentColor" stroke="none" transform="matrix(1 0 0 1 1233 1190 )"/>
  </g>
</svg>